<?xml version="1.0" standalone="no"?><!DOCTYPE svg PUBLIC "-//W3C//DTD SVG 1.1//EN" "http://www.w3.org/Graphics/SVG/1.1/DTD/svg11.dtd"><svg t="1746334888223" class="icon" viewBox="0 0 1024 1024" version="1.1" xmlns="http://www.w3.org/2000/svg" p-id="1468" width="256" height="256" xmlns:xlink="http://www.w3.org/1999/xlink"><path d="M341.333333 512a170.666667 170.666667 0 1 1 331.605334 56.874667 42.666667 42.666667 0 1 1-80.469334-28.416A85.333333 85.333333 0 1 0 512 597.333333a42.666667 42.666667 0 0 1 0 85.333334 170.666667 170.666667 0 0 1-170.666667-170.666667z" fill="#000000" p-id="1469"></path><path d="M450.218667 132.821333l-40.362667 71.722667a128 128 0 0 1-112.981333 65.194667l-82.304-0.853334A381.610667 381.610667 0 0 0 153.898667 374.186667l41.856 70.741333a128 128 0 0 1 0 130.389333l-41.898667 70.826667a385.194667 385.194667 0 0 0 60.8 105.258667l82.218667-0.896a128 128 0 0 1 112.981333 65.194666l40.32 71.637334a381.653333 381.653333 0 0 0 121.557333 0.085333l40.362667-71.68a128 128 0 0 1 112.938667-65.28l82.346666 0.938667a381.653333 381.653333 0 0 0 60.672-105.344l-41.898666-70.741334a128 128 0 0 1 0-130.389333l41.941333-70.826667a385.109333 385.109333 0 0 0-60.8-105.258666l-82.261333 0.896a128 128 0 0 1-112.938667-65.194667l-40.32-71.594667a381.610667 381.610667 0 0 0-121.6-0.128z m-15.402667-83.968a466.944 466.944 0 0 1 152.448 0.128c25.856 4.266667 46.762667 20.522667 58.581333 41.557334l40.618667 72.149333a42.666667 42.666667 0 0 0 37.632 21.76l82.901333-0.938667a83.072 83.072 0 0 1 65.365334 30.08 470.528 470.528 0 0 1 76.074666 131.84 83.072 83.072 0 0 1-6.613333 71.637334l-42.24 71.338666a42.666667 42.666667 0 0 0 0 43.477334l42.24 71.253333c12.245333 20.736 15.872 46.933333 6.656 71.509333a466.858667 466.858667 0 0 1-76.117333 132.053334c-16.64 20.309333-41.173333 30.293333-65.28 30.037333l-82.986667-0.896a42.666667 42.666667 0 0 0-37.632 21.717333l-40.704 72.277334a83.072 83.072 0 0 1-58.624 41.557333 466.986667 466.986667 0 0 1-152.448-0.128 83.072 83.072 0 0 1-58.581333-41.557333L335.488 857.6a42.666667 42.666667 0 0 0-37.674667-21.76l-82.858666 0.938667a83.029333 83.029333 0 0 1-65.365334-30.08 470.4 470.4 0 0 1-76.117333-131.84 83.072 83.072 0 0 1 6.656-71.68l42.24-71.253334a42.666667 42.666667 0 0 0 0-43.52l-42.24-71.253333a83.072 83.072 0 0 1-6.656-71.466667 466.901333 466.901333 0 0 1 76.117333-132.096c16.64-20.309333 41.173333-30.293333 65.28-30.037333l82.944 0.938667a42.666667 42.666667 0 0 0 37.674667-21.76l40.661333-72.277334a83.072 83.072 0 0 1 58.666667-41.557333z" fill="#000000" p-id="1470"></path></svg>